<svg width="402" height="100" viewBox="0 0 402 100" fill="none" xmlns="http://www.w3.org/2000/svg">
<circle cx="50" cy="50" r="50" fill="#F26527"/>
<circle cx="50.232" cy="50" r="46.9838" stroke="white" stroke-width="0.696056"/>
<path fill-rule="evenodd" clip-rule="evenodd" d="M64.5349 59.5903C65.3749 59.2479 66.3421 59.3274 67.1848 59.6631C67.8637 59.9335 68.4837 60.4013 68.8372 61.2824C68.864 61.3364 68.8906 61.3907 68.9171 61.4451C69.6851 63.0259 71.0255 64.1857 72.142 65.5429C72.3397 65.7832 72.5249 66.0417 72.6937 66.3216C73.5356 68.0349 73.9485 70.9303 72.9698 72.435C71.874 73.8004 69.6289 74.0414 68.1683 73.5362C67.9485 73.4764 67.772 73.403 67.6148 73.3212C66.4548 72.7173 65.3119 72.0011 64.0055 71.94C63.9077 71.9354 63.7976 71.9254 63.6699 71.906C63.4814 71.8973 63.2552 71.8904 63.0046 71.8818C60.8765 71.8084 58.3202 71.7191 56.9229 70.1122C56.7542 69.9183 56.6575 69.6771 56.6705 69.365C56.6736 67.1911 59.9091 64.8222 61.2615 63.8681C61.8386 63.4864 62.4446 63.0717 62.7189 62.2239C63.1112 61.2459 63.4553 60.0175 64.3269 59.684C64.3957 59.6499 64.465 59.6188 64.5349 59.5903Z" fill="white"/>
<path fill-rule="evenodd" clip-rule="evenodd" d="M53.6917 58.2934C53.9353 57.2332 54.6258 56.2525 55.5425 56.1091C56.1978 56.0043 56.876 56.2105 57.453 56.5941C58.5052 57.4626 59.1177 58.9329 59.464 60.4005C59.6386 61.1023 59.7573 61.8527 59.6135 62.5803C59.4806 63.4397 58.9777 64.1678 58.3305 64.5028C57.4899 65.1291 56.3752 65.0444 55.5737 64.3598C55.097 63.9684 54.6745 63.4576 54.4181 62.8174C53.8108 61.4601 53.4012 59.8473 53.6917 58.2934Z" fill="white"/>
<path fill-rule="evenodd" clip-rule="evenodd" d="M62.307 47.2653C62.307 47.2653 63.8247 47.2772 64.6618 49.799C64.6618 49.799 65.2394 51.4345 65.0389 53.9461C65.0389 53.9461 65.0075 56.4746 63.8498 57.5056C63.8498 57.5056 62.2758 59.3648 60.4677 56.8633C60.4677 56.8633 59.2059 55.1055 58.9587 52.621C58.9587 52.621 58.6856 50.0519 59.9083 48.5139C59.9083 48.5139 60.9457 47.2533 62.307 47.2653Z" fill="white"/>
<path fill-rule="evenodd" clip-rule="evenodd" d="M71.5794 48.1514C71.5794 48.1514 73.5113 48.8863 73.302 51.7281C73.302 51.7281 73.4117 54.0107 72.3619 56.0895C72.3619 56.0895 71.2986 58.6532 69.8854 58.9304C69.8854 58.9304 68.3242 59.554 67.1936 56.4706C67.1936 56.4706 66.3861 52.9714 67.6378 50.6155C67.6378 50.6155 69.0992 47.1208 71.5794 48.1514Z" fill="white"/>
<path fill-rule="evenodd" clip-rule="evenodd" d="M76.3761 57.1404C77.3188 57.3506 78.0621 58.2486 78.2496 59.2657C78.4331 60.1781 78.33 61.1251 78.1361 62.017C77.8059 63.326 77.0894 64.5146 76.1131 65.3459C75.3679 65.903 74.3564 65.8044 73.574 65.3476C73.2604 65.2225 73.0484 64.9457 72.8869 64.637C72.2932 63.6325 72.092 62.3556 72.4194 61.2238C72.6853 60.1624 73.0347 59.071 73.7446 58.2693C74.278 57.6156 75.0053 57.0515 75.8467 57.0601C76.025 57.0614 76.2034 57.0889 76.3761 57.1404Z" fill="white"/>
<path fill-rule="evenodd" clip-rule="evenodd" d="M34.3886 40.1003C35.2759 39.9118 36.2139 40.1612 36.984 40.6405C37.6044 41.0267 38.1318 41.5967 38.324 42.5265C38.3408 42.5844 38.3574 42.6425 38.3739 42.7007C38.8503 44.3924 39.9646 45.7709 40.8235 47.3042C40.9756 47.5756 41.1122 47.8627 41.2288 48.168C41.7546 50.0033 41.6491 52.9261 40.4198 54.234C39.0998 55.3842 36.8475 55.2244 35.4992 54.469C35.2934 54.3712 35.1327 54.2678 34.9925 54.1595C33.9575 53.3601 32.9592 52.4531 31.6842 52.1619C31.5887 52.1401 31.4822 52.1108 31.3598 52.0691C31.1759 52.0273 30.9545 51.9805 30.7093 51.9277C28.6277 51.4792 26.1275 50.9394 25.0363 49.1108C24.9046 48.89 24.852 48.6356 24.92 48.3307C25.3074 46.1916 28.9107 44.432 30.4104 43.7321C31.046 43.4584 31.7157 43.1574 32.1356 42.3715C32.6947 41.4782 33.2505 40.33 34.1674 40.1558C34.241 40.1345 34.3148 40.116 34.3886 40.1003Z" fill="white"/>
<path fill-rule="evenodd" clip-rule="evenodd" d="M23.9456 36.9068C24.3728 35.9064 25.2257 35.0633 26.1534 35.0841C26.8169 35.0969 27.448 35.4198 27.9481 35.8993C28.8302 36.9402 29.173 38.4956 29.2544 40.0013C29.3021 40.7229 29.2863 41.4824 29.0161 42.1732C28.7334 42.9955 28.1097 43.6232 27.4135 43.8385C26.4754 44.3064 25.3932 44.0259 24.7254 43.2104C24.3254 42.7409 23.9999 42.1635 23.8607 41.488C23.503 40.0447 23.385 38.385 23.9456 36.9068Z" fill="white"/>
<path fill-rule="evenodd" clip-rule="evenodd" d="M34.3749 27.5756C34.3749 27.5756 35.8666 27.8557 36.2446 30.4857C36.2446 30.4857 36.5239 32.1976 35.8826 34.6342C35.8826 34.6342 35.4047 37.1173 34.0829 37.9274C34.0829 37.9274 32.205 39.479 30.8676 36.6973C30.8676 36.6973 29.9365 34.7441 30.1325 32.255C30.1325 32.255 30.3178 29.6781 31.7932 28.3804C31.7932 28.3804 33.0371 27.3232 34.3749 27.5756Z" fill="white"/>
<path fill-rule="evenodd" clip-rule="evenodd" d="M43.3445 30.0871C43.3445 30.0871 45.1161 31.152 44.4076 33.912C44.4076 33.912 44.112 36.1781 42.7113 38.0385C42.7113 38.0385 41.2115 40.3739 39.7715 40.3968C39.7715 40.3968 38.1246 40.7346 37.5571 37.4998C37.5571 37.4998 37.3809 33.913 39.0294 31.8155C39.0294 31.8155 41.0856 28.6343 43.3445 30.0871Z" fill="white"/>
<path fill-rule="evenodd" clip-rule="evenodd" d="M46.4764 39.7825C47.3671 40.1562 47.94 41.1714 47.9446 42.2056C47.9639 43.1361 47.695 44.0499 47.3465 44.8935C46.7901 46.1235 45.8747 47.1667 44.7668 47.8123C43.9349 48.2289 42.9568 47.953 42.2675 47.3651C41.9809 47.1865 41.8212 46.8766 41.7168 46.5442C41.3101 45.4505 41.3378 44.1582 41.8601 43.1021C42.3095 42.1044 42.8464 41.092 43.6868 40.4284C44.3274 39.8794 45.1429 39.4527 45.9696 39.6099C46.1448 39.6427 46.3155 39.7013 46.4764 39.7825Z" fill="white"/>
<rect x="114" width="1" height="100" rx="0.5" fill="black"/>
<path d="M157.055 54.5078C157.055 59.1198 156.034 62.7839 153.992 65.5C151.951 68.1979 149.216 69.5469 145.789 69.5469C141.742 69.5469 138.643 68.125 136.492 65.2812V80.375H133.238V39.4141H136.273L136.438 43.5977C138.57 40.444 141.66 38.8672 145.707 38.8672C149.243 38.8672 152.014 40.207 154.02 42.8867C156.043 45.5664 157.055 49.2852 157.055 54.043V54.5078ZM153.773 53.9336C153.773 50.1602 152.999 47.1797 151.449 44.9922C149.9 42.8047 147.74 41.7109 144.969 41.7109C142.964 41.7109 141.241 42.194 139.801 43.1602C138.361 44.1263 137.258 45.5299 136.492 47.3711V61.5625C137.276 63.2578 138.397 64.5521 139.855 65.4453C141.314 66.3385 143.036 66.7852 145.023 66.7852C147.776 66.7852 149.918 65.6914 151.449 63.5039C152.999 61.2982 153.773 58.1081 153.773 53.9336ZM175.785 69.5469C173.27 69.5469 170.991 68.9271 168.949 67.6875C166.926 66.4479 165.349 64.7253 164.219 62.5195C163.089 60.2956 162.523 57.8073 162.523 55.0547V53.8789C162.523 51.0352 163.07 48.474 164.164 46.1953C165.276 43.9167 166.816 42.1302 168.785 40.8359C170.754 39.5234 172.887 38.8672 175.184 38.8672C178.775 38.8672 181.618 40.0977 183.715 42.5586C185.829 45.0013 186.887 48.3464 186.887 52.5938V54.4258H165.777V55.0547C165.777 58.4089 166.734 61.207 168.648 63.4492C170.581 65.6732 173.005 66.7852 175.922 66.7852C177.672 66.7852 179.212 66.4661 180.543 65.8281C181.892 65.1901 183.113 64.1693 184.207 62.7656L186.258 64.3242C183.852 67.806 180.361 69.5469 175.785 69.5469ZM175.184 41.6562C172.723 41.6562 170.645 42.5586 168.949 44.3633C167.272 46.168 166.251 48.5924 165.887 51.6367H183.633V51.2812C183.542 48.4375 182.73 46.1224 181.199 44.3359C179.668 42.5495 177.663 41.6562 175.184 41.6562ZM198.344 31.8398V39.4141H204.469V42.0938H198.344V61.8086C198.344 63.4492 198.635 64.6706 199.219 65.4727C199.82 66.2747 200.814 66.6758 202.199 66.6758C202.746 66.6758 203.63 66.5846 204.852 66.4023L204.988 69.082C204.132 69.3919 202.965 69.5469 201.488 69.5469C199.246 69.5469 197.615 68.8997 196.594 67.6055C195.573 66.293 195.062 64.3698 195.062 61.8359V42.0938H189.621V39.4141H195.062V31.8398H198.344ZM223.555 53.9336C223.555 49.3398 224.576 45.6849 226.617 42.9688C228.677 40.2344 231.466 38.8672 234.984 38.8672C238.977 38.8672 242.021 40.444 244.117 43.5977V27H247.371V69H244.309L244.172 65.0625C242.076 68.0521 238.995 69.5469 234.93 69.5469C231.521 69.5469 228.768 68.1797 226.672 65.4453C224.594 62.6927 223.555 58.9831 223.555 54.3164V53.9336ZM226.863 54.5078C226.863 58.2812 227.62 61.2617 229.133 63.4492C230.646 65.6185 232.779 66.7031 235.531 66.7031C239.56 66.7031 242.422 64.9258 244.117 61.3711V47.4805C242.422 43.6341 239.578 41.7109 235.586 41.7109C232.833 41.7109 230.691 42.7956 229.16 44.9648C227.629 47.1159 226.863 50.2969 226.863 54.5078ZM267.441 69.5469C264.926 69.5469 262.647 68.9271 260.605 67.6875C258.582 66.4479 257.005 64.7253 255.875 62.5195C254.745 60.2956 254.18 57.8073 254.18 55.0547V53.8789C254.18 51.0352 254.727 48.474 255.82 46.1953C256.932 43.9167 258.473 42.1302 260.441 40.8359C262.41 39.5234 264.543 38.8672 266.84 38.8672C270.431 38.8672 273.275 40.0977 275.371 42.5586C277.486 45.0013 278.543 48.3464 278.543 52.5938V54.4258H257.434V55.0547C257.434 58.4089 258.391 61.207 260.305 63.4492C262.237 65.6732 264.661 66.7852 267.578 66.7852C269.328 66.7852 270.868 66.4661 272.199 65.8281C273.548 65.1901 274.77 64.1693 275.863 62.7656L277.914 64.3242C275.508 67.806 272.017 69.5469 267.441 69.5469ZM266.84 41.6562C264.379 41.6562 262.301 42.5586 260.605 44.3633C258.928 46.168 257.908 48.5924 257.543 51.6367H275.289V51.2812C275.198 48.4375 274.387 46.1224 272.855 44.3359C271.324 42.5495 269.319 41.6562 266.84 41.6562ZM302.633 61.4805C302.633 59.8581 301.977 58.5547 300.664 57.5703C299.37 56.5859 297.41 55.8203 294.785 55.2734C292.16 54.7083 290.118 54.0703 288.66 53.3594C287.22 52.6302 286.145 51.7461 285.434 50.707C284.741 49.668 284.395 48.4102 284.395 46.9336C284.395 44.6003 285.37 42.6771 287.32 41.1641C289.271 39.6328 291.768 38.8672 294.812 38.8672C298.112 38.8672 300.755 39.6875 302.742 41.3281C304.747 42.9505 305.75 45.0742 305.75 47.6992H302.469C302.469 45.9674 301.74 44.5273 300.281 43.3789C298.841 42.2305 297.018 41.6562 294.812 41.6562C292.661 41.6562 290.93 42.1393 289.617 43.1055C288.323 44.0534 287.676 45.293 287.676 46.8242C287.676 48.3008 288.214 49.4492 289.289 50.2695C290.383 51.0716 292.361 51.8099 295.223 52.4844C298.103 53.1589 300.254 53.8789 301.676 54.6445C303.116 55.4102 304.182 56.3307 304.875 57.4062C305.568 58.4818 305.914 59.7852 305.914 61.3164C305.914 63.8138 304.902 65.8099 302.879 67.3047C300.874 68.7995 298.249 69.5469 295.004 69.5469C291.559 69.5469 288.76 68.7174 286.609 67.0586C284.477 65.3815 283.41 63.2669 283.41 60.7148H286.691C286.819 62.6289 287.621 64.1237 289.098 65.1992C290.592 66.2565 292.561 66.7852 295.004 66.7852C297.283 66.7852 299.124 66.2839 300.527 65.2812C301.931 64.2786 302.633 63.0117 302.633 61.4805ZM316.961 69H313.68V39.4141H316.961V69ZM313.105 30.8555C313.105 30.2357 313.306 29.7161 313.707 29.2969C314.108 28.8594 314.655 28.6406 315.348 28.6406C316.04 28.6406 316.587 28.8594 316.988 29.2969C317.408 29.7161 317.617 30.2357 317.617 30.8555C317.617 31.4753 317.408 31.9948 316.988 32.4141C316.587 32.8333 316.04 33.043 315.348 33.043C314.655 33.043 314.108 32.8333 313.707 32.4141C313.306 31.9948 313.105 31.4753 313.105 30.8555ZM324.562 53.9336C324.562 49.3034 325.583 45.6393 327.625 42.9414C329.685 40.2253 332.474 38.8672 335.992 38.8672C340.021 38.8672 343.083 40.4714 345.18 43.6797L345.344 39.4141H348.406V68.3984C348.406 72.2083 347.34 75.2253 345.207 77.4492C343.074 79.6732 340.185 80.7852 336.539 80.7852C334.479 80.7852 332.51 80.3203 330.633 79.3906C328.773 78.4792 327.306 77.2578 326.23 75.7266L328.062 73.7578C330.378 76.6016 333.13 78.0234 336.32 78.0234C339.055 78.0234 341.188 77.2122 342.719 75.5898C344.25 73.9857 345.043 71.7526 345.098 68.8906V65.1719C343.001 68.0885 339.948 69.5469 335.938 69.5469C332.51 69.5469 329.758 68.1797 327.68 65.4453C325.602 62.7109 324.562 59.0195 324.562 54.3711V53.9336ZM327.871 54.5078C327.871 58.2812 328.628 61.2617 330.141 63.4492C331.654 65.6185 333.786 66.7031 336.539 66.7031C340.568 66.7031 343.421 64.8984 345.098 61.2891V47.5352C344.332 45.6393 343.229 44.1992 341.789 43.2148C340.349 42.2122 338.617 41.7109 336.594 41.7109C333.841 41.7109 331.699 42.7956 330.168 44.9648C328.637 47.1159 327.871 50.2969 327.871 54.5078ZM360.055 39.4141L360.164 44.4727C361.276 42.6497 362.661 41.2643 364.32 40.3164C365.979 39.3503 367.811 38.8672 369.816 38.8672C372.988 38.8672 375.349 39.7604 376.898 41.5469C378.448 43.3333 379.232 46.013 379.25 49.5859V69H375.996V49.5586C375.978 46.9154 375.413 44.9466 374.301 43.6523C373.207 42.3581 371.448 41.7109 369.023 41.7109C367 41.7109 365.204 42.349 363.637 43.625C362.087 44.8828 360.939 46.5872 360.191 48.7383V69H356.938V39.4141H360.055Z" fill="black"/>
</svg>
