<svg width="338" height="338" viewBox="0 0 338 338" fill="none" xmlns="http://www.w3.org/2000/svg">
<circle cx="169" cy="169" r="169" fill="#F26527"/>
<circle cx="169.784" cy="169" r="158.805" stroke="white" stroke-width="2.35267"/>
<path fill-rule="evenodd" clip-rule="evenodd" d="M218.128 201.415C220.967 200.258 224.236 200.527 227.085 201.661C229.379 202.575 231.475 204.156 232.67 207.135C232.76 207.317 232.85 207.501 232.94 207.685C235.536 213.028 240.066 216.948 243.84 221.535C244.508 222.347 245.134 223.221 245.705 224.167C248.55 229.958 249.946 239.745 246.638 244.83C242.934 249.445 235.346 250.26 230.409 248.552C229.666 248.35 229.069 248.102 228.538 247.826C224.617 245.785 220.754 243.364 216.339 243.157C216.008 243.142 215.636 243.108 215.204 243.042C214.567 243.013 213.803 242.99 212.956 242.96C205.762 242.712 197.122 242.411 192.399 236.979C191.829 236.324 191.502 235.509 191.546 234.454C191.557 227.106 202.493 219.099 207.064 215.874C209.015 214.584 211.063 213.182 211.99 210.317C213.316 207.011 214.479 202.859 217.425 201.732C217.657 201.617 217.892 201.511 218.128 201.415Z" fill="white"/>
<path fill-rule="evenodd" clip-rule="evenodd" d="M181.478 197.032C182.301 193.448 184.635 190.134 187.734 189.649C189.949 189.294 192.241 189.992 194.191 191.288C197.748 194.224 199.818 199.193 200.988 204.154C201.578 206.526 201.98 209.062 201.494 211.521C201.044 214.426 199.345 216.887 197.157 218.019C194.316 220.136 190.548 219.85 187.839 217.536C186.228 216.213 184.8 214.487 183.933 212.323C181.881 207.735 180.496 202.284 181.478 197.032Z" fill="white"/>
<path fill-rule="evenodd" clip-rule="evenodd" d="M210.598 159.757C210.598 159.757 215.728 159.797 218.557 168.321C218.557 168.321 220.509 173.849 219.832 182.338C219.832 182.338 219.726 190.884 215.812 194.369C215.812 194.369 210.492 200.653 204.381 192.198C204.381 192.198 200.116 186.257 199.281 177.859C199.281 177.859 198.357 169.175 202.49 163.977C202.49 163.977 205.997 159.716 210.598 159.757Z" fill="white"/>
<path fill-rule="evenodd" clip-rule="evenodd" d="M241.938 162.752C241.938 162.752 248.468 165.236 247.761 174.841C247.761 174.841 248.131 182.556 244.583 189.582C244.583 189.582 240.989 198.248 236.213 199.185C236.213 199.185 230.936 201.293 227.114 190.871C227.114 190.871 224.385 179.043 228.616 171.08C228.616 171.08 233.555 159.268 241.938 162.752Z" fill="white"/>
<path fill-rule="evenodd" clip-rule="evenodd" d="M258.151 193.134C261.337 193.845 263.85 196.88 264.483 200.318C265.104 203.402 264.755 206.603 264.1 209.618C262.984 214.042 260.562 218.06 257.262 220.869C254.744 222.752 251.325 222.419 248.68 220.875C247.62 220.452 246.904 219.517 246.358 218.473C244.351 215.078 243.671 210.762 244.778 206.937C245.676 203.349 246.857 199.66 249.257 196.95C251.06 194.741 253.518 192.834 256.362 192.863C256.964 192.867 257.567 192.961 258.151 193.134Z" fill="white"/>
<path fill-rule="evenodd" clip-rule="evenodd" d="M116.234 135.539C119.233 134.902 122.403 135.745 125.006 137.365C127.103 138.67 128.886 140.597 129.535 143.74C129.592 143.935 129.648 144.132 129.704 144.328C131.314 150.046 135.08 154.706 137.983 159.888C138.497 160.806 138.959 161.776 139.353 162.808C141.131 169.011 140.774 178.89 136.619 183.311C132.157 187.199 124.544 186.659 119.987 184.105C119.292 183.775 118.749 183.425 118.275 183.059C114.776 180.357 111.402 177.291 107.093 176.307C106.77 176.234 106.41 176.135 105.996 175.994C105.374 175.852 104.626 175.694 103.798 175.515C96.7616 174 88.3108 172.175 84.6226 165.994C84.1774 165.248 83.9997 164.388 84.2296 163.358C85.5388 156.128 97.7182 150.18 102.787 147.814C104.935 146.889 107.199 145.872 108.618 143.216C110.508 140.196 112.387 136.315 115.486 135.727C115.735 135.654 115.984 135.592 116.234 135.539Z" fill="white"/>
<path fill-rule="evenodd" clip-rule="evenodd" d="M80.936 124.745C82.3799 121.364 85.2629 118.514 88.3982 118.584C90.6412 118.627 92.7741 119.719 94.4643 121.34C97.4458 124.858 98.6048 130.115 98.8799 135.204C99.0411 137.643 98.9878 140.211 98.0745 142.545C97.1188 145.325 95.0106 147.447 92.6575 148.174C89.4867 149.756 85.8291 148.808 83.5718 146.051C82.2196 144.464 81.1194 142.513 80.649 140.229C79.4399 135.351 79.0411 129.741 80.936 124.745Z" fill="white"/>
<path fill-rule="evenodd" clip-rule="evenodd" d="M116.187 93.2056C116.187 93.2056 121.229 94.1523 122.507 103.042C122.507 103.042 123.451 108.828 121.283 117.064C121.283 117.064 119.668 125.457 115.2 128.195C115.2 128.195 108.853 133.439 104.333 124.037C104.333 124.037 101.185 117.435 101.848 109.022C101.848 109.022 102.474 100.312 107.461 95.9259C107.461 95.9259 111.666 92.3524 116.187 93.2056Z" fill="white"/>
<path fill-rule="evenodd" clip-rule="evenodd" d="M146.505 101.694C146.505 101.694 152.493 105.294 150.098 114.623C150.098 114.623 149.099 122.282 144.364 128.57C144.364 128.57 139.295 136.464 134.428 136.541C134.428 136.541 128.861 137.683 126.943 126.749C126.943 126.749 126.347 114.626 131.919 107.536C131.919 107.536 138.869 96.7838 146.505 101.694Z" fill="white"/>
<path fill-rule="evenodd" clip-rule="evenodd" d="M157.09 134.465C160.101 135.728 162.037 139.159 162.053 142.655C162.118 145.8 161.209 148.889 160.031 151.74C158.151 155.897 155.057 159.424 151.312 161.606C148.5 163.014 145.194 162.081 142.864 160.094C141.896 159.49 141.356 158.443 141.003 157.319C139.628 153.623 139.722 149.255 141.487 145.685C143.006 142.313 144.821 138.891 147.661 136.648C149.827 134.792 152.583 133.35 155.377 133.882C155.97 133.992 156.547 134.191 157.09 134.465Z" fill="white"/>
</svg>
